<?xml version="1.0" encoding="UTF-8" standalone="no"?>
<!DOCTYPE svg PUBLIC "-//W3C//DTD SVG 1.1//EN"
 "http://www.w3.org/Graphics/SVG/1.1/DTD/svg11.dtd">
<!-- Generated by graphviz version 2.43.0 (0)
 -->
<!-- Title: snakemake_dag Pages: 1 -->
<svg width="650pt" height="332pt"
 viewBox="0.00 0.00 650.00 332.00" xmlns="http://www.w3.org/2000/svg" xmlns:xlink="http://www.w3.org/1999/xlink">
<g id="graph0" class="graph" transform="scale(1 1) rotate(0) translate(4 328)">
<title>snakemake_dag</title>
<polygon fill="white" stroke="transparent" points="-4,4 -4,-328 646,-328 646,4 -4,4"/>
<!-- 0 -->
<g id="node1" class="node">
<title>0</title>
<path fill="none" stroke="#afd856" stroke-width="2" d="M288.5,-36C288.5,-36 258.5,-36 258.5,-36 252.5,-36 246.5,-30 246.5,-24 246.5,-24 246.5,-12 246.5,-12 246.5,-6 252.5,0 258.5,0 258.5,0 288.5,0 288.5,0 294.5,0 300.5,-6 300.5,-12 300.5,-12 300.5,-24 300.5,-24 300.5,-30 294.5,-36 288.5,-36"/>
<text text-anchor="middle" x="273.5" y="-15.5" font-family="sans" font-size="10.00">all</text>
</g>
<!-- 1 -->
<g id="node2" class="node">
<title>1</title>
<path fill="none" stroke="#56d8a9" stroke-width="2" d="M294,-108C294,-108 253,-108 253,-108 247,-108 241,-102 241,-96 241,-96 241,-84 241,-84 241,-78 247,-72 253,-72 253,-72 294,-72 294,-72 300,-72 306,-78 306,-84 306,-84 306,-96 306,-96 306,-102 300,-108 294,-108"/>
<text text-anchor="middle" x="273.5" y="-87.5" font-family="sans" font-size="10.00">makeMAE</text>
</g>
<!-- 1&#45;&gt;0 -->
<g id="edge1" class="edge">
<title>1&#45;&gt;0</title>
<path fill="none" stroke="grey" stroke-width="2" d="M273.5,-71.7C273.5,-63.98 273.5,-54.71 273.5,-46.11"/>
<polygon fill="grey" stroke="grey" stroke-width="2" points="277,-46.1 273.5,-36.1 270,-46.1 277,-46.1"/>
</g>
<!-- 2 -->
<g id="node3" class="node">
<title>2</title>
<path fill="none" stroke="#56a9d8" stroke-width="2" d="M251.5,-180C251.5,-180 203.5,-180 203.5,-180 197.5,-180 191.5,-174 191.5,-168 191.5,-168 191.5,-156 191.5,-156 191.5,-150 197.5,-144 203.5,-144 203.5,-144 251.5,-144 251.5,-144 257.5,-144 263.5,-150 263.5,-156 263.5,-156 263.5,-168 263.5,-168 263.5,-174 257.5,-180 251.5,-180"/>
<text text-anchor="middle" x="227.5" y="-159.5" font-family="sans" font-size="10.00">get_clinical</text>
</g>
<!-- 2&#45;&gt;1 -->
<g id="edge2" class="edge">
<title>2&#45;&gt;1</title>
<path fill="none" stroke="grey" stroke-width="2" d="M238.87,-143.7C244.22,-135.56 250.7,-125.69 256.61,-116.7"/>
<polygon fill="grey" stroke="grey" stroke-width="2" points="259.69,-118.38 262.26,-108.1 253.84,-114.54 259.69,-118.38"/>
</g>
<!-- 3 -->
<g id="node4" class="node">
<title>3</title>
<path fill="none" stroke="#d8ac56" stroke-width="2" d="M347,-180C347,-180 294,-180 294,-180 288,-180 282,-174 282,-168 282,-168 282,-156 282,-156 282,-150 288,-144 294,-144 294,-144 347,-144 347,-144 353,-144 359,-150 359,-156 359,-156 359,-168 359,-168 359,-174 353,-180 347,-180"/>
<text text-anchor="middle" x="320.5" y="-159.5" font-family="sans" font-size="10.00">combineRFE</text>
</g>
<!-- 3&#45;&gt;1 -->
<g id="edge3" class="edge">
<title>3&#45;&gt;1</title>
<path fill="none" stroke="grey" stroke-width="2" d="M308.88,-143.7C303.36,-135.47 296.65,-125.48 290.57,-116.42"/>
<polygon fill="grey" stroke="grey" stroke-width="2" points="293.46,-114.46 284.98,-108.1 287.65,-118.36 293.46,-114.46"/>
</g>
<!-- 4 -->
<g id="node5" class="node">
<title>4</title>
<path fill="none" stroke="#d85656" stroke-width="2" d="M137,-252C137,-252 22,-252 22,-252 16,-252 10,-246 10,-240 10,-240 10,-228 10,-228 10,-222 16,-216 22,-216 22,-216 137,-216 137,-216 143,-216 149,-222 149,-228 149,-228 149,-240 149,-240 149,-246 143,-252 137,-252"/>
<text text-anchor="middle" x="79.5" y="-231.5" font-family="sans" font-size="10.00">extractRadiomicFeatures</text>
</g>
<!-- 4&#45;&gt;3 -->
<g id="edge4" class="edge">
<title>4&#45;&gt;3</title>
<path fill="none" stroke="grey" stroke-width="2" d="M146.39,-215.91C181.29,-206.69 224.85,-194.72 272.01,-180.05"/>
<polygon fill="grey" stroke="grey" stroke-width="2" points="273.31,-183.31 281.81,-176.97 271.22,-176.63 273.31,-183.31"/>
</g>
<!-- 5 -->
<g id="node6" class="node">
<title>5</title>
<path fill="none" stroke="#59d856" stroke-width="2" d="M135,-324C135,-324 12,-324 12,-324 6,-324 0,-318 0,-312 0,-312 0,-300 0,-300 0,-294 6,-288 12,-288 12,-288 135,-288 135,-288 141,-288 147,-294 147,-300 147,-300 147,-312 147,-312 147,-318 141,-324 135,-324"/>
<text text-anchor="middle" x="73.5" y="-309" font-family="sans" font-size="10.00">run_medimagetools</text>
<text text-anchor="middle" x="73.5" y="-298" font-family="sans" font-size="10.00">patient_id: RADCURE&#45;0020</text>
</g>
<!-- 5&#45;&gt;4 -->
<g id="edge8" class="edge">
<title>5&#45;&gt;4</title>
<path fill="none" stroke="grey" stroke-width="2" d="M74.98,-287.7C75.64,-279.98 76.44,-270.71 77.18,-262.11"/>
<polygon fill="grey" stroke="grey" stroke-width="2" points="80.67,-262.37 78.03,-252.1 73.69,-261.77 80.67,-262.37"/>
</g>
<!-- 6 -->
<g id="node7" class="node">
<title>6</title>
<path fill="none" stroke="#d85656" stroke-width="2" d="M298,-252C298,-252 183,-252 183,-252 177,-252 171,-246 171,-240 171,-240 171,-228 171,-228 171,-222 177,-216 183,-216 183,-216 298,-216 298,-216 304,-216 310,-222 310,-228 310,-228 310,-240 310,-240 310,-246 304,-252 298,-252"/>
<text text-anchor="middle" x="240.5" y="-231.5" font-family="sans" font-size="10.00">extractRadiomicFeatures</text>
</g>
<!-- 6&#45;&gt;3 -->
<g id="edge5" class="edge">
<title>6&#45;&gt;3</title>
<path fill="none" stroke="grey" stroke-width="2" d="M260.28,-215.7C270.25,-206.97 282.51,-196.24 293.36,-186.75"/>
<polygon fill="grey" stroke="grey" stroke-width="2" points="295.73,-189.32 300.95,-180.1 291.12,-184.06 295.73,-189.32"/>
</g>
<!-- 7 -->
<g id="node8" class="node">
<title>7</title>
<path fill="none" stroke="#59d856" stroke-width="2" d="M300,-324C300,-324 177,-324 177,-324 171,-324 165,-318 165,-312 165,-312 165,-300 165,-300 165,-294 171,-288 177,-288 177,-288 300,-288 300,-288 306,-288 312,-294 312,-300 312,-300 312,-312 312,-312 312,-318 306,-324 300,-324"/>
<text text-anchor="middle" x="238.5" y="-309" font-family="sans" font-size="10.00">run_medimagetools</text>
<text text-anchor="middle" x="238.5" y="-298" font-family="sans" font-size="10.00">patient_id: RADCURE&#45;0065</text>
</g>
<!-- 7&#45;&gt;6 -->
<g id="edge9" class="edge">
<title>7&#45;&gt;6</title>
<path fill="none" stroke="grey" stroke-width="2" d="M238.99,-287.7C239.21,-279.98 239.48,-270.71 239.73,-262.11"/>
<polygon fill="grey" stroke="grey" stroke-width="2" points="243.22,-262.2 240.01,-252.1 236.23,-262 243.22,-262.2"/>
</g>
<!-- 8 -->
<g id="node9" class="node">
<title>8</title>
<path fill="none" stroke="#d85656" stroke-width="2" d="M459,-252C459,-252 344,-252 344,-252 338,-252 332,-246 332,-240 332,-240 332,-228 332,-228 332,-222 338,-216 344,-216 344,-216 459,-216 459,-216 465,-216 471,-222 471,-228 471,-228 471,-240 471,-240 471,-246 465,-252 459,-252"/>
<text text-anchor="middle" x="401.5" y="-231.5" font-family="sans" font-size="10.00">extractRadiomicFeatures</text>
</g>
<!-- 8&#45;&gt;3 -->
<g id="edge6" class="edge">
<title>8&#45;&gt;3</title>
<path fill="none" stroke="grey" stroke-width="2" d="M381.48,-215.7C371.37,-206.97 358.96,-196.24 347.98,-186.75"/>
<polygon fill="grey" stroke="grey" stroke-width="2" points="350.15,-183.99 340.29,-180.1 345.57,-189.29 350.15,-183.99"/>
</g>
<!-- 9 -->
<g id="node10" class="node">
<title>9</title>
<path fill="none" stroke="#59d856" stroke-width="2" d="M465,-324C465,-324 342,-324 342,-324 336,-324 330,-318 330,-312 330,-312 330,-300 330,-300 330,-294 336,-288 342,-288 342,-288 465,-288 465,-288 471,-288 477,-294 477,-300 477,-300 477,-312 477,-312 477,-318 471,-324 465,-324"/>
<text text-anchor="middle" x="403.5" y="-309" font-family="sans" font-size="10.00">run_medimagetools</text>
<text text-anchor="middle" x="403.5" y="-298" font-family="sans" font-size="10.00">patient_id: RADCURE&#45;0099</text>
</g>
<!-- 9&#45;&gt;8 -->
<g id="edge10" class="edge">
<title>9&#45;&gt;8</title>
<path fill="none" stroke="grey" stroke-width="2" d="M403.01,-287.7C402.79,-279.98 402.52,-270.71 402.27,-262.11"/>
<polygon fill="grey" stroke="grey" stroke-width="2" points="405.77,-262 401.99,-252.1 398.78,-262.2 405.77,-262"/>
</g>
<!-- 10 -->
<g id="node11" class="node">
<title>10</title>
<path fill="none" stroke="#d85656" stroke-width="2" d="M622,-252C622,-252 507,-252 507,-252 501,-252 495,-246 495,-240 495,-240 495,-228 495,-228 495,-222 501,-216 507,-216 507,-216 622,-216 622,-216 628,-216 634,-222 634,-228 634,-228 634,-240 634,-240 634,-246 628,-252 622,-252"/>
<text text-anchor="middle" x="564.5" y="-231.5" font-family="sans" font-size="10.00">extractRadiomicFeatures</text>
</g>
<!-- 10&#45;&gt;3 -->
<g id="edge7" class="edge">
<title>10&#45;&gt;3</title>
<path fill="none" stroke="grey" stroke-width="2" d="M505.12,-215.97C463.34,-203.98 408.11,-188.13 368.97,-176.91"/>
<polygon fill="grey" stroke="grey" stroke-width="2" points="369.72,-173.48 359.14,-174.08 367.79,-180.21 369.72,-173.48"/>
</g>
<!-- 11 -->
<g id="node12" class="node">
<title>11</title>
<path fill="none" stroke="#59d856" stroke-width="2" d="M630,-324C630,-324 507,-324 507,-324 501,-324 495,-318 495,-312 495,-312 495,-300 495,-300 495,-294 501,-288 507,-288 507,-288 630,-288 630,-288 636,-288 642,-294 642,-300 642,-300 642,-312 642,-312 642,-318 636,-324 630,-324"/>
<text text-anchor="middle" x="568.5" y="-309" font-family="sans" font-size="10.00">run_medimagetools</text>
<text text-anchor="middle" x="568.5" y="-298" font-family="sans" font-size="10.00">patient_id: RADCURE&#45;0112</text>
</g>
<!-- 11&#45;&gt;10 -->
<g id="edge11" class="edge">
<title>11&#45;&gt;10</title>
<path fill="none" stroke="grey" stroke-width="2" d="M567.51,-287.7C567.07,-279.98 566.54,-270.71 566.05,-262.11"/>
<polygon fill="grey" stroke="grey" stroke-width="2" points="569.54,-261.89 565.48,-252.1 562.55,-262.29 569.54,-261.89"/>
</g>
</g>
</svg>
