<?xml version="1.0" encoding="UTF-8" standalone="no"?>
<!DOCTYPE svg PUBLIC "-//W3C//DTD SVG 1.1//EN"
 "http://www.w3.org/Graphics/SVG/1.1/DTD/svg11.dtd">
<!-- Generated by graphviz version 2.43.0 (0)
 -->
<!-- Title: snakemake_dag Pages: 1 -->
<svg width="1640pt" height="332pt"
 viewBox="0.00 0.00 1640.00 332.00" xmlns="http://www.w3.org/2000/svg" xmlns:xlink="http://www.w3.org/1999/xlink">
<g id="graph0" class="graph" transform="scale(1 1) rotate(0) translate(4 328)">
<title>snakemake_dag</title>
<polygon fill="white" stroke="transparent" points="-4,4 -4,-328 1636,-328 1636,4 -4,4"/>
<!-- 0 -->
<g id="node1" class="node">
<title>0</title>
<path fill="none" stroke="#56a9d8" stroke-width="2" d="M759.5,-36C759.5,-36 729.5,-36 729.5,-36 723.5,-36 717.5,-30 717.5,-24 717.5,-24 717.5,-12 717.5,-12 717.5,-6 723.5,0 729.5,0 729.5,0 759.5,0 759.5,0 765.5,0 771.5,-6 771.5,-12 771.5,-12 771.5,-24 771.5,-24 771.5,-30 765.5,-36 759.5,-36"/>
<text text-anchor="middle" x="744.5" y="-15.5" font-family="sans" font-size="10.00">all</text>
</g>
<!-- 1 -->
<g id="node2" class="node">
<title>1</title>
<path fill="none" stroke="#afd856" stroke-width="2" d="M765,-108C765,-108 724,-108 724,-108 718,-108 712,-102 712,-96 712,-96 712,-84 712,-84 712,-78 718,-72 724,-72 724,-72 765,-72 765,-72 771,-72 777,-78 777,-84 777,-84 777,-96 777,-96 777,-102 771,-108 765,-108"/>
<text text-anchor="middle" x="744.5" y="-87.5" font-family="sans" font-size="10.00">makeMAE</text>
</g>
<!-- 1&#45;&gt;0 -->
<g id="edge1" class="edge">
<title>1&#45;&gt;0</title>
<path fill="none" stroke="grey" stroke-width="2" d="M744.5,-71.7C744.5,-63.98 744.5,-54.71 744.5,-46.11"/>
<polygon fill="grey" stroke="grey" stroke-width="2" points="748,-46.1 744.5,-36.1 741,-46.1 748,-46.1"/>
</g>
<!-- 2 -->
<g id="node3" class="node">
<title>2</title>
<path fill="none" stroke="#d85656" stroke-width="2" d="M710.5,-180C710.5,-180 642.5,-180 642.5,-180 636.5,-180 630.5,-174 630.5,-168 630.5,-168 630.5,-156 630.5,-156 630.5,-150 636.5,-144 642.5,-144 642.5,-144 710.5,-144 710.5,-144 716.5,-144 722.5,-150 722.5,-156 722.5,-156 722.5,-168 722.5,-168 722.5,-174 716.5,-180 710.5,-180"/>
<text text-anchor="middle" x="676.5" y="-159.5" font-family="sans" font-size="10.00">getClinicalData</text>
</g>
<!-- 2&#45;&gt;1 -->
<g id="edge2" class="edge">
<title>2&#45;&gt;1</title>
<path fill="none" stroke="grey" stroke-width="2" d="M693.31,-143.7C701.63,-135.14 711.81,-124.66 720.89,-115.3"/>
<polygon fill="grey" stroke="grey" stroke-width="2" points="723.43,-117.72 727.88,-108.1 718.41,-112.84 723.43,-117.72"/>
</g>
<!-- 3 -->
<g id="node4" class="node">
<title>3</title>
<path fill="none" stroke="#59d856" stroke-width="2" d="M874.5,-180C874.5,-180 752.5,-180 752.5,-180 746.5,-180 740.5,-174 740.5,-168 740.5,-168 740.5,-156 740.5,-156 740.5,-150 746.5,-144 752.5,-144 752.5,-144 874.5,-144 874.5,-144 880.5,-144 886.5,-150 886.5,-156 886.5,-156 886.5,-168 886.5,-168 886.5,-174 880.5,-180 874.5,-180"/>
<text text-anchor="middle" x="813.5" y="-159.5" font-family="sans" font-size="10.00">combineRadiomicFeatures</text>
</g>
<!-- 3&#45;&gt;1 -->
<g id="edge3" class="edge">
<title>3&#45;&gt;1</title>
<path fill="none" stroke="grey" stroke-width="2" d="M796.44,-143.7C788,-135.14 777.68,-124.66 768.46,-115.3"/>
<polygon fill="grey" stroke="grey" stroke-width="2" points="770.87,-112.77 761.36,-108.1 765.89,-117.68 770.87,-112.77"/>
</g>
<!-- 4 -->
<g id="node5" class="node">
<title>4</title>
<path fill="none" stroke="#d8ac56" stroke-width="2" d="M138,-252C138,-252 23,-252 23,-252 17,-252 11,-246 11,-240 11,-240 11,-228 11,-228 11,-222 17,-216 23,-216 23,-216 138,-216 138,-216 144,-216 150,-222 150,-228 150,-228 150,-240 150,-240 150,-246 144,-252 138,-252"/>
<text text-anchor="middle" x="80.5" y="-231.5" font-family="sans" font-size="10.00">extractRadiomicFeatures</text>
</g>
<!-- 4&#45;&gt;3 -->
<g id="edge4" class="edge">
<title>4&#45;&gt;3</title>
<path fill="none" stroke="grey" stroke-width="2" d="M150.02,-218.72C156.25,-217.7 162.48,-216.77 168.5,-216 413.92,-184.58 481.25,-212.77 730.19,-180.06"/>
<polygon fill="grey" stroke="grey" stroke-width="2" points="730.82,-183.5 740.27,-178.71 729.9,-176.57 730.82,-183.5"/>
</g>
<!-- 5 -->
<g id="node6" class="node">
<title>5</title>
<path fill="none" stroke="#56d8a9" stroke-width="2" d="M135,-324C135,-324 12,-324 12,-324 6,-324 0,-318 0,-312 0,-312 0,-300 0,-300 0,-294 6,-288 12,-288 12,-288 135,-288 135,-288 141,-288 147,-294 147,-300 147,-300 147,-312 147,-312 147,-318 141,-324 135,-324"/>
<text text-anchor="middle" x="73.5" y="-309" font-family="sans" font-size="10.00">runMedImageTools</text>
<text text-anchor="middle" x="73.5" y="-298" font-family="sans" font-size="10.00">patient_id: RADCURE&#45;0005</text>
</g>
<!-- 5&#45;&gt;4 -->
<g id="edge14" class="edge">
<title>5&#45;&gt;4</title>
<path fill="none" stroke="grey" stroke-width="2" d="M75.23,-287.7C76,-279.98 76.93,-270.71 77.79,-262.11"/>
<polygon fill="grey" stroke="grey" stroke-width="2" points="81.28,-262.4 78.79,-252.1 74.31,-261.71 81.28,-262.4"/>
</g>
<!-- 6 -->
<g id="node7" class="node">
<title>6</title>
<path fill="none" stroke="#d8ac56" stroke-width="2" d="M304,-252C304,-252 189,-252 189,-252 183,-252 177,-246 177,-240 177,-240 177,-228 177,-228 177,-222 183,-216 189,-216 189,-216 304,-216 304,-216 310,-216 316,-222 316,-228 316,-228 316,-240 316,-240 316,-246 310,-252 304,-252"/>
<text text-anchor="middle" x="246.5" y="-231.5" font-family="sans" font-size="10.00">extractRadiomicFeatures</text>
</g>
<!-- 6&#45;&gt;3 -->
<g id="edge5" class="edge">
<title>6&#45;&gt;3</title>
<path fill="none" stroke="grey" stroke-width="2" d="M316.33,-218.56C321.79,-217.62 327.23,-216.76 332.5,-216 505.48,-191.17 553.6,-205.56 730.11,-180.1"/>
<polygon fill="grey" stroke="grey" stroke-width="2" points="730.87,-183.53 740.26,-178.62 729.85,-176.6 730.87,-183.53"/>
</g>
<!-- 7 -->
<g id="node8" class="node">
<title>7</title>
<path fill="none" stroke="#56d8a9" stroke-width="2" d="M300,-324C300,-324 177,-324 177,-324 171,-324 165,-318 165,-312 165,-312 165,-300 165,-300 165,-294 171,-288 177,-288 177,-288 300,-288 300,-288 306,-288 312,-294 312,-300 312,-300 312,-312 312,-312 312,-318 306,-324 300,-324"/>
<text text-anchor="middle" x="238.5" y="-309" font-family="sans" font-size="10.00">runMedImageTools</text>
<text text-anchor="middle" x="238.5" y="-298" font-family="sans" font-size="10.00">patient_id: RADCURE&#45;0006</text>
</g>
<!-- 7&#45;&gt;6 -->
<g id="edge15" class="edge">
<title>7&#45;&gt;6</title>
<path fill="none" stroke="grey" stroke-width="2" d="M240.48,-287.7C241.36,-279.98 242.42,-270.71 243.4,-262.11"/>
<polygon fill="grey" stroke="grey" stroke-width="2" points="246.89,-262.44 244.55,-252.1 239.93,-261.64 246.89,-262.44"/>
</g>
<!-- 8 -->
<g id="node9" class="node">
<title>8</title>
<path fill="none" stroke="#d8ac56" stroke-width="2" d="M468,-252C468,-252 353,-252 353,-252 347,-252 341,-246 341,-240 341,-240 341,-228 341,-228 341,-222 347,-216 353,-216 353,-216 468,-216 468,-216 474,-216 480,-222 480,-228 480,-228 480,-240 480,-240 480,-246 474,-252 468,-252"/>
<text text-anchor="middle" x="410.5" y="-231.5" font-family="sans" font-size="10.00">extractRadiomicFeatures</text>
</g>
<!-- 8&#45;&gt;3 -->
<g id="edge6" class="edge">
<title>8&#45;&gt;3</title>
<path fill="none" stroke="grey" stroke-width="2" d="M480.03,-218.82C485.26,-217.84 490.46,-216.89 495.5,-216 596.83,-198.15 625.36,-198.72 730.18,-180.19"/>
<polygon fill="grey" stroke="grey" stroke-width="2" points="730.99,-183.6 740.22,-178.39 729.76,-176.7 730.99,-183.6"/>
</g>
<!-- 9 -->
<g id="node10" class="node">
<title>9</title>
<path fill="none" stroke="#56d8a9" stroke-width="2" d="M465,-324C465,-324 342,-324 342,-324 336,-324 330,-318 330,-312 330,-312 330,-300 330,-300 330,-294 336,-288 342,-288 342,-288 465,-288 465,-288 471,-288 477,-294 477,-300 477,-300 477,-312 477,-312 477,-318 471,-324 465,-324"/>
<text text-anchor="middle" x="403.5" y="-309" font-family="sans" font-size="10.00">runMedImageTools</text>
<text text-anchor="middle" x="403.5" y="-298" font-family="sans" font-size="10.00">patient_id: RADCURE&#45;0007</text>
</g>
<!-- 9&#45;&gt;8 -->
<g id="edge16" class="edge">
<title>9&#45;&gt;8</title>
<path fill="none" stroke="grey" stroke-width="2" d="M405.23,-287.7C406,-279.98 406.93,-270.71 407.79,-262.11"/>
<polygon fill="grey" stroke="grey" stroke-width="2" points="411.28,-262.4 408.79,-252.1 404.31,-261.71 411.28,-262.4"/>
</g>
<!-- 10 -->
<g id="node11" class="node">
<title>10</title>
<path fill="none" stroke="#d8ac56" stroke-width="2" d="M631,-252C631,-252 516,-252 516,-252 510,-252 504,-246 504,-240 504,-240 504,-228 504,-228 504,-222 510,-216 516,-216 516,-216 631,-216 631,-216 637,-216 643,-222 643,-228 643,-228 643,-240 643,-240 643,-246 637,-252 631,-252"/>
<text text-anchor="middle" x="573.5" y="-231.5" font-family="sans" font-size="10.00">extractRadiomicFeatures</text>
</g>
<!-- 10&#45;&gt;3 -->
<g id="edge7" class="edge">
<title>10&#45;&gt;3</title>
<path fill="none" stroke="grey" stroke-width="2" d="M631.9,-215.97C666.02,-206.01 709.25,-193.41 744.97,-182.99"/>
<polygon fill="grey" stroke="grey" stroke-width="2" points="746.21,-186.27 754.83,-180.11 744.25,-179.55 746.21,-186.27"/>
</g>
<!-- 11 -->
<g id="node12" class="node">
<title>11</title>
<path fill="none" stroke="#56d8a9" stroke-width="2" d="M630,-324C630,-324 507,-324 507,-324 501,-324 495,-318 495,-312 495,-312 495,-300 495,-300 495,-294 501,-288 507,-288 507,-288 630,-288 630,-288 636,-288 642,-294 642,-300 642,-300 642,-312 642,-312 642,-318 636,-324 630,-324"/>
<text text-anchor="middle" x="568.5" y="-309" font-family="sans" font-size="10.00">runMedImageTools</text>
<text text-anchor="middle" x="568.5" y="-298" font-family="sans" font-size="10.00">patient_id: RADCURE&#45;0009</text>
</g>
<!-- 11&#45;&gt;10 -->
<g id="edge17" class="edge">
<title>11&#45;&gt;10</title>
<path fill="none" stroke="grey" stroke-width="2" d="M569.74,-287.7C570.29,-279.98 570.95,-270.71 571.56,-262.11"/>
<polygon fill="grey" stroke="grey" stroke-width="2" points="575.06,-262.33 572.28,-252.1 568.07,-261.83 575.06,-262.33"/>
</g>
<!-- 12 -->
<g id="node13" class="node">
<title>12</title>
<path fill="none" stroke="#d8ac56" stroke-width="2" d="M792,-252C792,-252 677,-252 677,-252 671,-252 665,-246 665,-240 665,-240 665,-228 665,-228 665,-222 671,-216 677,-216 677,-216 792,-216 792,-216 798,-216 804,-222 804,-228 804,-228 804,-240 804,-240 804,-246 798,-252 792,-252"/>
<text text-anchor="middle" x="734.5" y="-231.5" font-family="sans" font-size="10.00">extractRadiomicFeatures</text>
</g>
<!-- 12&#45;&gt;3 -->
<g id="edge8" class="edge">
<title>12&#45;&gt;3</title>
<path fill="none" stroke="grey" stroke-width="2" d="M754.03,-215.7C763.88,-206.97 775.99,-196.24 786.7,-186.75"/>
<polygon fill="grey" stroke="grey" stroke-width="2" points="789.03,-189.36 794.2,-180.1 784.39,-184.12 789.03,-189.36"/>
</g>
<!-- 13 -->
<g id="node14" class="node">
<title>13</title>
<path fill="none" stroke="#56d8a9" stroke-width="2" d="M795,-324C795,-324 672,-324 672,-324 666,-324 660,-318 660,-312 660,-312 660,-300 660,-300 660,-294 666,-288 672,-288 672,-288 795,-288 795,-288 801,-288 807,-294 807,-300 807,-300 807,-312 807,-312 807,-318 801,-324 795,-324"/>
<text text-anchor="middle" x="733.5" y="-309" font-family="sans" font-size="10.00">runMedImageTools</text>
<text text-anchor="middle" x="733.5" y="-298" font-family="sans" font-size="10.00">patient_id: RADCURE&#45;0010</text>
</g>
<!-- 13&#45;&gt;12 -->
<g id="edge18" class="edge">
<title>13&#45;&gt;12</title>
<path fill="none" stroke="grey" stroke-width="2" d="M733.75,-287.7C733.86,-279.98 733.99,-270.71 734.11,-262.11"/>
<polygon fill="grey" stroke="grey" stroke-width="2" points="737.61,-262.15 734.26,-252.1 730.61,-262.05 737.61,-262.15"/>
</g>
<!-- 14 -->
<g id="node15" class="node">
<title>14</title>
<path fill="none" stroke="#d8ac56" stroke-width="2" d="M950,-252C950,-252 835,-252 835,-252 829,-252 823,-246 823,-240 823,-240 823,-228 823,-228 823,-222 829,-216 835,-216 835,-216 950,-216 950,-216 956,-216 962,-222 962,-228 962,-228 962,-240 962,-240 962,-246 956,-252 950,-252"/>
<text text-anchor="middle" x="892.5" y="-231.5" font-family="sans" font-size="10.00">extractRadiomicFeatures</text>
</g>
<!-- 14&#45;&gt;3 -->
<g id="edge9" class="edge">
<title>14&#45;&gt;3</title>
<path fill="none" stroke="grey" stroke-width="2" d="M872.97,-215.7C863.12,-206.97 851.01,-196.24 840.3,-186.75"/>
<polygon fill="grey" stroke="grey" stroke-width="2" points="842.61,-184.12 832.8,-180.1 837.97,-189.36 842.61,-184.12"/>
</g>
<!-- 15 -->
<g id="node16" class="node">
<title>15</title>
<path fill="none" stroke="#56d8a9" stroke-width="2" d="M960,-324C960,-324 837,-324 837,-324 831,-324 825,-318 825,-312 825,-312 825,-300 825,-300 825,-294 831,-288 837,-288 837,-288 960,-288 960,-288 966,-288 972,-294 972,-300 972,-300 972,-312 972,-312 972,-318 966,-324 960,-324"/>
<text text-anchor="middle" x="898.5" y="-309" font-family="sans" font-size="10.00">runMedImageTools</text>
<text text-anchor="middle" x="898.5" y="-298" font-family="sans" font-size="10.00">patient_id: RADCURE&#45;0011</text>
</g>
<!-- 15&#45;&gt;14 -->
<g id="edge19" class="edge">
<title>15&#45;&gt;14</title>
<path fill="none" stroke="grey" stroke-width="2" d="M897.02,-287.7C896.36,-279.98 895.56,-270.71 894.82,-262.11"/>
<polygon fill="grey" stroke="grey" stroke-width="2" points="898.31,-261.77 893.97,-252.1 891.33,-262.37 898.31,-261.77"/>
</g>
<!-- 16 -->
<g id="node17" class="node">
<title>16</title>
<path fill="none" stroke="#d8ac56" stroke-width="2" d="M1109,-252C1109,-252 994,-252 994,-252 988,-252 982,-246 982,-240 982,-240 982,-228 982,-228 982,-222 988,-216 994,-216 994,-216 1109,-216 1109,-216 1115,-216 1121,-222 1121,-228 1121,-228 1121,-240 1121,-240 1121,-246 1115,-252 1109,-252"/>
<text text-anchor="middle" x="1051.5" y="-231.5" font-family="sans" font-size="10.00">extractRadiomicFeatures</text>
</g>
<!-- 16&#45;&gt;3 -->
<g id="edge10" class="edge">
<title>16&#45;&gt;3</title>
<path fill="none" stroke="grey" stroke-width="2" d="M993.58,-215.97C959.75,-206.01 916.88,-193.41 881.46,-182.99"/>
<polygon fill="grey" stroke="grey" stroke-width="2" points="882.26,-179.57 871.68,-180.11 880.28,-186.29 882.26,-179.57"/>
</g>
<!-- 17 -->
<g id="node18" class="node">
<title>17</title>
<path fill="none" stroke="#56d8a9" stroke-width="2" d="M1125,-324C1125,-324 1002,-324 1002,-324 996,-324 990,-318 990,-312 990,-312 990,-300 990,-300 990,-294 996,-288 1002,-288 1002,-288 1125,-288 1125,-288 1131,-288 1137,-294 1137,-300 1137,-300 1137,-312 1137,-312 1137,-318 1131,-324 1125,-324"/>
<text text-anchor="middle" x="1063.5" y="-309" font-family="sans" font-size="10.00">runMedImageTools</text>
<text text-anchor="middle" x="1063.5" y="-298" font-family="sans" font-size="10.00">patient_id: RADCURE&#45;0012</text>
</g>
<!-- 17&#45;&gt;16 -->
<g id="edge20" class="edge">
<title>17&#45;&gt;16</title>
<path fill="none" stroke="grey" stroke-width="2" d="M1060.53,-287.7C1059.21,-279.98 1057.62,-270.71 1056.15,-262.11"/>
<polygon fill="grey" stroke="grey" stroke-width="2" points="1059.57,-261.37 1054.43,-252.1 1052.67,-262.55 1059.57,-261.37"/>
</g>
<!-- 18 -->
<g id="node19" class="node">
<title>18</title>
<path fill="none" stroke="#d8ac56" stroke-width="2" d="M1271,-252C1271,-252 1156,-252 1156,-252 1150,-252 1144,-246 1144,-240 1144,-240 1144,-228 1144,-228 1144,-222 1150,-216 1156,-216 1156,-216 1271,-216 1271,-216 1277,-216 1283,-222 1283,-228 1283,-228 1283,-240 1283,-240 1283,-246 1277,-252 1271,-252"/>
<text text-anchor="middle" x="1213.5" y="-231.5" font-family="sans" font-size="10.00">extractRadiomicFeatures</text>
</g>
<!-- 18&#45;&gt;3 -->
<g id="edge11" class="edge">
<title>18&#45;&gt;3</title>
<path fill="none" stroke="grey" stroke-width="2" d="M1143.8,-218.53C1139.3,-217.66 1134.84,-216.81 1130.5,-216 1051.35,-201.28 960.72,-186.32 896.7,-176.06"/>
<polygon fill="grey" stroke="grey" stroke-width="2" points="897.09,-172.58 886.66,-174.46 895.98,-179.49 897.09,-172.58"/>
</g>
<!-- 19 -->
<g id="node20" class="node">
<title>19</title>
<path fill="none" stroke="#56d8a9" stroke-width="2" d="M1290,-324C1290,-324 1167,-324 1167,-324 1161,-324 1155,-318 1155,-312 1155,-312 1155,-300 1155,-300 1155,-294 1161,-288 1167,-288 1167,-288 1290,-288 1290,-288 1296,-288 1302,-294 1302,-300 1302,-300 1302,-312 1302,-312 1302,-318 1296,-324 1290,-324"/>
<text text-anchor="middle" x="1228.5" y="-309" font-family="sans" font-size="10.00">runMedImageTools</text>
<text text-anchor="middle" x="1228.5" y="-298" font-family="sans" font-size="10.00">patient_id: RADCURE&#45;0013</text>
</g>
<!-- 19&#45;&gt;18 -->
<g id="edge21" class="edge">
<title>19&#45;&gt;18</title>
<path fill="none" stroke="grey" stroke-width="2" d="M1224.79,-287.7C1223.14,-279.98 1221.15,-270.71 1219.31,-262.11"/>
<polygon fill="grey" stroke="grey" stroke-width="2" points="1222.68,-261.15 1217.17,-252.1 1215.84,-262.62 1222.68,-261.15"/>
</g>
<!-- 20 -->
<g id="node21" class="node">
<title>20</title>
<path fill="none" stroke="#d8ac56" stroke-width="2" d="M1438,-252C1438,-252 1323,-252 1323,-252 1317,-252 1311,-246 1311,-240 1311,-240 1311,-228 1311,-228 1311,-222 1317,-216 1323,-216 1323,-216 1438,-216 1438,-216 1444,-216 1450,-222 1450,-228 1450,-228 1450,-240 1450,-240 1450,-246 1444,-252 1438,-252"/>
<text text-anchor="middle" x="1380.5" y="-231.5" font-family="sans" font-size="10.00">extractRadiomicFeatures</text>
</g>
<!-- 20&#45;&gt;3 -->
<g id="edge12" class="edge">
<title>20&#45;&gt;3</title>
<path fill="none" stroke="grey" stroke-width="2" d="M1310.94,-219.02C1304.71,-217.94 1298.5,-216.91 1292.5,-216 1154.42,-195.06 992.77,-178.89 896.98,-170.18"/>
<polygon fill="grey" stroke="grey" stroke-width="2" points="897.05,-166.67 886.77,-169.26 896.42,-173.64 897.05,-166.67"/>
</g>
<!-- 21 -->
<g id="node22" class="node">
<title>21</title>
<path fill="none" stroke="#56d8a9" stroke-width="2" d="M1455,-324C1455,-324 1332,-324 1332,-324 1326,-324 1320,-318 1320,-312 1320,-312 1320,-300 1320,-300 1320,-294 1326,-288 1332,-288 1332,-288 1455,-288 1455,-288 1461,-288 1467,-294 1467,-300 1467,-300 1467,-312 1467,-312 1467,-318 1461,-324 1455,-324"/>
<text text-anchor="middle" x="1393.5" y="-309" font-family="sans" font-size="10.00">runMedImageTools</text>
<text text-anchor="middle" x="1393.5" y="-298" font-family="sans" font-size="10.00">patient_id: RADCURE&#45;0014</text>
</g>
<!-- 21&#45;&gt;20 -->
<g id="edge22" class="edge">
<title>21&#45;&gt;20</title>
<path fill="none" stroke="grey" stroke-width="2" d="M1390.29,-287.7C1388.85,-279.98 1387.13,-270.71 1385.54,-262.11"/>
<polygon fill="grey" stroke="grey" stroke-width="2" points="1388.94,-261.3 1383.68,-252.1 1382.06,-262.58 1388.94,-261.3"/>
</g>
<!-- 22 -->
<g id="node23" class="node">
<title>22</title>
<path fill="none" stroke="#d8ac56" stroke-width="2" d="M1615,-252C1615,-252 1500,-252 1500,-252 1494,-252 1488,-246 1488,-240 1488,-240 1488,-228 1488,-228 1488,-222 1494,-216 1500,-216 1500,-216 1615,-216 1615,-216 1621,-216 1627,-222 1627,-228 1627,-228 1627,-240 1627,-240 1627,-246 1621,-252 1615,-252"/>
<text text-anchor="middle" x="1557.5" y="-231.5" font-family="sans" font-size="10.00">extractRadiomicFeatures</text>
</g>
<!-- 22&#45;&gt;3 -->
<g id="edge13" class="edge">
<title>22&#45;&gt;3</title>
<path fill="none" stroke="grey" stroke-width="2" d="M1487.75,-220.11C1478.28,-218.59 1468.66,-217.17 1459.5,-216 1258.37,-190.36 1020.34,-174.56 896.99,-167.44"/>
<polygon fill="grey" stroke="grey" stroke-width="2" points="897.05,-163.94 886.87,-166.87 896.65,-170.93 897.05,-163.94"/>
</g>
<!-- 23 -->
<g id="node24" class="node">
<title>23</title>
<path fill="none" stroke="#56d8a9" stroke-width="2" d="M1620,-324C1620,-324 1497,-324 1497,-324 1491,-324 1485,-318 1485,-312 1485,-312 1485,-300 1485,-300 1485,-294 1491,-288 1497,-288 1497,-288 1620,-288 1620,-288 1626,-288 1632,-294 1632,-300 1632,-300 1632,-312 1632,-312 1632,-318 1626,-324 1620,-324"/>
<text text-anchor="middle" x="1558.5" y="-309" font-family="sans" font-size="10.00">runMedImageTools</text>
<text text-anchor="middle" x="1558.5" y="-298" font-family="sans" font-size="10.00">patient_id: RADCURE&#45;0016</text>
</g>
<!-- 23&#45;&gt;22 -->
<g id="edge23" class="edge">
<title>23&#45;&gt;22</title>
<path fill="none" stroke="grey" stroke-width="2" d="M1558.25,-287.7C1558.14,-279.98 1558.01,-270.71 1557.89,-262.11"/>
<polygon fill="grey" stroke="grey" stroke-width="2" points="1561.39,-262.05 1557.74,-252.1 1554.39,-262.15 1561.39,-262.05"/>
</g>
</g>
</svg>
